<svg width="100" height="100" viewBox="0 0 100 100" fill="none" xmlns="http://www.w3.org/2000/svg">
<path d="M13.7265 90.0036L5.55554 0H95.3704L87.1885 89.9893L50.4084 100L13.7265 90.0036Z" fill="#1572B6"/>
<path d="M50 92.5926L79.2338 84.3965L86.1111 6.48145H50V92.5926Z" fill="#33A9DC"/>
<path d="M50 40.209H64.6595L65.6703 29.2355H50V18.5186H77.7778L77.5125 21.3928L74.7921 50.926H50V40.209V40.209Z" fill="white"/>
<path d="M50 69.2809L49.9521 69.2949L38.1988 66.0386L37.4476 57.4075H26.8518L28.3304 74.4001L49.9487 80.5556L50 80.5416V69.2809V69.2809Z" fill="#EBEBEB"/>
<path d="M63.797 50.926L62.453 65.7283L50 69.0543V80.5557L72.8902 74.2757L73.06 72.4088L75 50.926H63.797V50.926Z" fill="white"/>
<path d="M50 18.5186V29.2355H24.1088L23.8938 26.8258L23.4048 21.3928L23.1482 18.5186H50V18.5186ZM49.9619 40.209V50.926H38.1746L37.9595 48.5163L37.474 43.0833L37.2174 40.209H49.9619V40.209Z" fill="#EBEBEB"/>
</svg>
