<svg width="100" height="101" viewBox="0 0 100 101" fill="none" xmlns="http://www.w3.org/2000/svg">
<path d="M13.917 90.1332L5.98291 0H93.1624L85.2177 90.1189L49.5197 100.144L13.917 90.1332Z" fill="#E44F26"/>
<path d="M49.5726 92.4407L78.6335 84.3754L85.4701 7.70337H49.5726V92.4407Z" fill="#F1662A"/>
<path d="M49.5726 40.8576H35.1386L34.1434 29.7138H49.5726V18.8306H22.2222L22.4833 21.753L25.1619 51.7408H49.5726V40.8576V40.8576ZM49.5726 69.1202L49.5232 69.1343L37.3761 65.8634L36.5997 57.1842H25.6489L27.177 74.2679L49.5232 80.4577L49.5726 80.4436V69.1202Z" fill="#EBEBEB"/>
<path d="M49.5726 40.8589V51.7427H63.0165L61.7519 65.859L49.5726 69.1337V80.4577L71.9567 74.271L72.1192 72.433L74.6836 43.7814L74.952 40.8589H49.5726V40.8589ZM49.5726 18.8306V29.7144H75.9446L76.1636 27.2708L76.6617 21.7531L76.9231 18.8306H49.5726V18.8306Z" fill="white"/>
</svg>
