<svg width="92" height="98" fill="none" xmlns="http://www.w3.org/2000/svg"><g clip-path="url(#a)"><path d="M7.704 87.735 0 .164 92 .34l-8.146 87.395-37.507 10.101L7.704 87.735Z" fill="#E9CA32"/><path d="M46.347 89.379V8.504l37.886.117-6.756 72.359-31.13 8.399Z" fill="#FFDE25"/><path d="M42.29 18.106H32.274v53.829l-7.79-1.38v-7.246l-9.274-1.38v16.217l27.08 6.556V18.106Zm7.514 0h27.728l-1.855 10.318H60.39v16.93h15.288l-1.854 34.172-24.02 5.176V74.005l16.23-5.175.936-14.148-17.165 2.312V18.106Z" fill="#fff"/></g><defs><clipPath id="a"><path fill="#fff" d="M0 0h92v98H0z"/></clipPath></defs></svg>
