<svg width="101" height="102" viewBox="0 0 101 102" fill="none" xmlns="http://www.w3.org/2000/svg">
<path d="M83.0421 35.8172C81.9673 35.4523 80.8833 35.1143 79.7912 34.8035C79.9746 34.0618 80.1435 33.3291 80.2934 32.6093C82.7545 20.7891 81.1456 11.2665 75.6502 8.13117C70.3812 5.12547 61.7643 8.25959 53.0617 15.7532C52.204 16.493 51.3654 17.2542 50.5466 18.0359C49.9984 17.5161 49.4406 17.0063 48.8733 16.5069C39.7526 8.49459 30.6105 5.11766 25.121 8.26194C19.8568 11.277 18.298 20.2289 20.5137 31.4312C20.7341 32.5407 20.983 33.6444 21.2601 34.7414C19.966 35.1052 18.7174 35.4924 17.5223 35.9046C6.82894 39.5934 0 45.3742 0 51.3703C0 57.5633 7.33118 63.7749 18.4688 67.5414C19.3717 67.8455 20.2822 68.1273 21.1993 68.3865C20.9015 69.568 20.637 70.7575 20.4063 71.9535C18.294 82.9614 19.9436 91.7018 25.1936 94.6977C30.616 97.7916 39.7171 94.6118 48.5786 86.9473C49.2972 86.3242 50 85.6834 50.6862 85.0256C51.5729 85.8721 52.4834 86.694 53.4164 87.4903C62.0006 94.7984 70.4783 97.7495 75.7232 94.7453C81.1405 91.6424 82.9013 82.2529 80.6154 70.8293C80.4353 69.9344 80.2333 69.0438 80.0098 68.1585C80.6489 67.9712 81.2762 67.7783 81.8877 67.5777C93.4664 63.7823 101 57.646 101 51.3703C101 45.3523 93.9505 39.5326 83.0421 35.8172V35.8172ZM80.5309 63.5259C79.9786 63.7066 79.412 63.8811 78.8344 64.0509C77.5562 60.0471 75.8313 55.7899 73.7201 51.391C75.7346 47.0972 77.3932 42.8943 78.6356 38.9166C79.6689 39.2125 80.6714 39.5244 81.638 39.8534C90.9844 43.0371 96.6854 47.7436 96.6854 51.3703C96.6854 55.2332 90.5284 60.2481 80.5309 63.5259V63.5259ZM76.3828 71.6584C77.3936 76.7096 77.5376 81.2767 76.8681 84.8472C76.2668 88.0555 75.0572 90.1942 73.5611 91.0511C70.3785 92.874 63.5716 90.5046 56.2306 84.2543C55.3627 83.5139 54.5159 82.7498 53.691 81.9629C56.5371 78.8834 59.3813 75.3035 62.1572 71.3274C67.0399 70.8988 71.6528 70.1977 75.836 69.241C76.0375 70.0424 76.2198 70.8485 76.3828 71.6584V71.6584ZM34.4331 90.7361C31.3234 91.8224 28.8465 91.8536 27.3493 90.9995C24.1635 89.1817 22.839 82.1636 24.6456 72.7499C24.8603 71.6375 25.1062 70.5312 25.383 69.4323C29.52 70.3379 34.0993 70.989 38.9935 71.3817C41.7884 75.2723 44.7146 78.8483 47.6637 81.9797C47.037 82.5797 46.3954 83.1644 45.7396 83.7332C41.8207 87.1222 37.8939 89.5267 34.4331 90.7361V90.7361ZM19.8646 63.5021C14.9397 61.8364 10.8725 59.6719 8.08473 57.3099C5.57946 55.1876 4.31499 53.0801 4.31499 51.3703C4.31499 47.7315 9.79779 43.0902 18.9426 39.9358C20.0524 39.5532 21.2139 39.1922 22.4192 38.8533C23.6833 42.9208 25.3411 47.1737 27.3418 51.4742C25.3151 55.8383 23.6336 60.1591 22.3573 64.2746C21.5201 64.0373 20.689 63.7797 19.8646 63.5021V63.5021ZM24.7482 30.6111C22.8501 21.0135 24.1106 13.7737 27.283 11.9566C30.6618 10.0212 38.1334 12.7806 46.0087 19.6992C46.5222 20.1514 47.0274 20.6127 47.5241 21.083C44.5895 24.2007 41.6901 27.7502 38.9201 31.6178C34.17 32.0534 29.623 32.7529 25.4425 33.6902C25.185 32.6699 24.9534 31.6433 24.7482 30.6115V30.6111ZM68.3151 41.2552C67.3276 39.5677 66.3036 37.9014 65.2436 36.2575C68.4662 36.6607 71.5538 37.1959 74.4532 37.8501C73.5828 40.6107 72.4979 43.4966 71.2208 46.4554C70.2873 44.703 69.3185 42.9693 68.3151 41.2552V41.2552ZM50.5485 24.134C52.5385 26.2673 54.5317 28.6488 56.4921 31.2329C52.5153 31.0471 48.5318 31.0463 44.5548 31.2306C46.5172 28.6703 48.5273 26.2919 50.5485 24.134ZM32.668 41.2844C31.6771 42.9848 30.7264 44.7077 29.8167 46.4519C28.5605 43.5036 27.4854 40.6045 26.6076 37.8049C29.4892 37.167 32.5622 36.6455 35.7643 36.2497C34.6925 37.9036 33.6601 39.5822 32.668 41.2841V41.2844ZM35.8562 66.7947C32.548 66.4293 29.4289 65.9347 26.548 65.3141C27.4396 62.4645 28.5384 59.5037 29.8218 56.4921C30.7351 58.2376 31.6897 59.9616 32.6849 61.6627C33.7084 63.4115 34.7681 65.1244 35.8562 66.7947ZM50.6677 78.9073C48.6224 76.7244 46.5827 74.3093 44.5907 71.7119C46.5247 71.7869 48.4962 71.8251 50.5 71.8251C52.5587 71.8251 54.5937 71.7794 56.5967 71.6912C54.63 74.3355 52.6443 76.7541 50.6677 78.9073ZM71.2614 56.3383C72.6115 59.3831 73.7493 62.3283 74.6528 65.129C71.7246 65.7903 68.5628 66.3227 65.2314 66.7182C66.2989 65.0438 67.3327 63.3485 68.332 61.6334C69.3481 59.8901 70.3248 58.1247 71.2614 56.3383V56.3383ZM64.5946 59.5006C63.0647 62.1301 61.4488 64.7097 59.7494 67.2354C56.6711 67.4511 53.586 67.5582 50.5 67.5566C47.3568 67.5566 44.2995 67.4598 41.3556 67.2709C39.6118 64.7511 37.9651 62.167 36.4188 59.524H36.4192C34.8802 56.895 33.4427 54.2091 32.1097 51.4722C33.4393 48.7346 34.8724 46.0475 36.4062 43.4165L36.4058 43.4169C37.9389 40.7853 39.5725 38.2122 41.3031 35.7032C44.3066 35.4784 47.3868 35.3613 50.4996 35.3613H50.5C53.6271 35.3613 56.7111 35.4795 59.7139 35.7059C61.427 38.2112 63.0502 40.7754 64.5804 43.3939C66.1193 46.0191 67.5714 48.6931 68.9345 51.4117C67.5854 54.1581 66.1378 56.8561 64.5946 59.5006V59.5006ZM73.4953 11.8294C76.8772 13.7592 78.1925 21.5417 76.0676 31.7474C75.9319 32.3985 75.7796 33.0617 75.6139 33.7343C71.4232 32.7771 66.873 32.0655 62.1091 31.6233C59.334 27.7131 56.4582 24.1582 53.5714 21.0807C54.328 20.3591 55.1026 19.6563 55.8944 18.9728C63.3511 12.5527 70.3201 10.0177 73.4953 11.8294V11.8294ZM50.5 42.4469C55.481 42.4469 59.519 46.4422 59.519 51.3703C59.519 56.2985 55.481 60.2938 50.5 60.2938C45.519 60.2938 41.481 56.2985 41.481 51.3703C41.481 46.4422 45.519 42.4469 50.5 42.4469V42.4469Z" fill="#00D8FF"/>
</svg>
